<svg width="318" height="555" viewBox="0 0 318 555" fill="none" xmlns="http://www.w3.org/2000/svg">
<path d="M284 289.2L279.2 352C272.267 363.467 263.467 373.733 252.8 382.8C242.4 391.6 230 398.667 215.6 404C201.467 409.067 185.2 411.6 166.8 411.6C139.067 411.333 114.4 405.2 92.8 393.2C71.2 381.2 54.2667 364.4 42 342.8C30 320.933 24 295.2 24 265.6C24 236.533 30 211.2 42 189.6C54 167.733 70.8 150.8 92.4 138.8C114.267 126.533 139.867 120.4 169.2 120.4C188.933 120.4 206.667 123.067 222.4 128.4C238.4 133.467 252.267 139.867 264 147.6L272 204H268.4C262.533 180.533 250.533 162.8 232.4 150.8C214.267 138.533 193.2 132.4 169.2 132.4C145.733 132.4 125.333 138 108 149.2C90.9333 160.133 77.6 175.6 68 195.6C58.6667 215.333 54 238.533 54 265.2C54 291.867 58.6667 315.2 68 335.2C77.6 355.2 90.8 370.8 107.6 382C124.667 393.2 144.4 399.067 166.8 399.6C185.733 399.6 203.2 396.133 219.2 389.2C235.467 382 249.067 370.4 260 354.4C270.933 338.133 277.867 316.4 280.8 289.2H284Z" fill="#5D17EB"/>
<path d="M280.499 14.906L317.637 14.906L181.425 292.151L144 292.151L280.499 14.906Z" fill="#5D17EB"/>
<line x1="144" y1="15" x2="318" y2="15" stroke="#5D16EC" stroke-width="2"/>
<line x1="144" y1="292" x2="318" y2="292" stroke="#5D16EC" stroke-width="2"/>
</svg>
